<?xml version="1.0" encoding="utf-8"?>
<!-- Svg Vector Icons : http://www.onlinewebfonts.com/icon -->
<!DOCTYPE svg PUBLIC "-//W3C//DTD SVG 1.1//EN" "http://www.w3.org/Graphics/SVG/1.1/DTD/svg11.dtd">
<svg version="1.1" xmlns="http://www.w3.org/2000/svg" xmlns:xlink="http://www.w3.org/1999/xlink" fill="brown" x="0px" y="0px" viewBox="0 0 1000 1000" enable-background="new 0 0 1000 1000" xml:space="preserve">
<metadata> Svg Vector Icons : http://www.onlinewebfonts.com/icon </metadata>
<g><g><g><path d="M981.3,489.9c-8.8-10.2-217.9-250.8-481.4-250.8c-263.4,0-472.5,240.6-481.3,250.8L10,500l8.7,10.1c8.8,10.3,217.9,250.8,481.3,250.8c263.5,0,472.5-240.5,481.4-250.8L990,500L981.3,489.9z M500,729.8C280.7,729.8,94.3,545.6,51.5,500C94.3,454.4,280.7,270.2,500,270.2c219.3,0,405.7,184.2,448.6,229.8C905.7,545.6,719.5,729.8,500,729.8z"/><path d="M500,403.1c-53.4,0-96.9,43.4-96.9,96.9c0,53.5,43.5,96.9,96.9,96.9c53.4,0,96.9-43.4,96.9-96.9C596.9,446.6,553.4,403.1,500,403.1z M500,565.9c-36.3,0-65.8-29.6-65.8-65.9c0-36.3,29.5-65.9,65.8-65.9c36.3,0,65.9,29.6,65.9,65.9C565.8,536.3,536.3,565.9,500,565.9z"/></g></g><g></g><g></g><g></g><g></g><g></g><g></g><g></g><g></g><g></g><g></g><g></g><g></g><g></g><g></g><g></g></g>
</svg>
