<?xml version="1.0" encoding="utf-8"?>
<!-- Svg Vector Icons : http://www.onlinewebfonts.com/icon -->
<!DOCTYPE svg PUBLIC "-//W3C//DTD SVG 1.1//EN" "http://www.w3.org/Graphics/SVG/1.1/DTD/svg11.dtd">
<svg version="1.1" xmlns="http://www.w3.org/2000/svg" xmlns:xlink="http://www.w3.org/1999/xlink" fill="brown" x="0px" y="0px" viewBox="0 0 1000 1000" enable-background="new 0 0 1000 1000" xml:space="preserve">
<metadata> Svg Vector Icons : http://www.onlinewebfonts.com/icon </metadata>
<g><path d="M944.1,982.3H300.9c-25.4,0-45.9-20.6-45.9-45.9c0-65.9,27.8-145.7,74.4-213.4c38.9-56.6,86.8-99.2,138.5-124c-22.8-20.7-42.4-46-57.9-74.8c-24.9-46.2-38-99.6-38-154.4c0-76.2,25.1-148.2,70.6-202.7c47.5-56.9,111.4-88.2,180-88.2s132.4,31.3,180,88.2c45.5,54.5,70.6,126.5,70.6,202.7c0,54.8-13.2,108.2-38,154.4c-15.5,28.8-35.1,54.1-57.9,74.8c51.7,24.9,99.5,67.5,138.5,124c46.6,67.7,74.4,147.5,74.4,213.4C990,961.8,969.4,982.3,944.1,982.3z M352.7,890.5h539.6c-8.8-37.6-27.3-78.8-52.4-115.3c-39.7-57.6-89.2-95.3-139.4-106.2c-21.2-4.6-36.3-23.3-36.3-44.9v-32.8c0-16.5,8.9-31.8,23.2-39.9c56.9-32.4,93.7-103.6,93.7-181.5c0-109.8-71.2-199.1-158.7-199.1s-158.7,89.3-158.7,199.1c0,77.9,36.8,149.1,93.7,181.5c14.4,8.2,23.2,23.4,23.2,39.9v32.8c0,21.6-15.1,40.3-36.3,44.9c-50.2,10.8-99.7,48.5-139.4,106.2C380,811.6,361.5,852.8,352.7,890.5z M198.6,829.2h-91c8.8-37.6,27.3-78.8,52.4-115.3c39.7-57.6,89.2-95.3,139.4-106.2c21.2-4.6,36.3-23.3,36.3-44.9V530c0-16.5-8.9-31.8-23.2-39.9c-56.9-32.4-93.7-103.6-93.7-181.5c0-109.8,71.2-199.1,158.7-199.1c6,0,11.9,0.4,17.7,1.2c25.2-28.1,53.8-50.9,84.8-68c-31.8-16.5-66.5-25.2-102.5-25.2c-68.5,0-132.4,31.3-180,88.2c-45.5,54.5-70.6,126.5-70.6,202.7c0,54.8,13.2,108.2,38,154.4c15.5,28.8,35.1,54,57.9,74.8c-51.7,24.9-99.5,67.5-138.5,124C37.8,729.5,10,809.3,10,875.2c0,25.4,20.6,45.9,45.9,45.9h126.7C184,891.4,189.5,860.4,198.6,829.2L198.6,829.2z"/></g>
</svg>
